# xmcd
#
# Track frame offsets:
#	150
#	17418
#	34514
#	53147
#	67886
#	87741
#	102261
#	114931
#	129598
#	144466
#	162799
#	179427
#
# Disc length: 2572 seconds
#
# Revision: 1
# Processed by: cddbd v1.5.2PL0 Copyright (c) Steve Scherf et al.
# Submitted via: audiograbber 1.83.01
#
DISCID=960a0a0c
DTITLE=Lateral Blue - Go Your Own Way - A Bluegrass Tribute to the '70s
DYEAR=2019
DGENRE=Bluegrass
TTITLE0=Mr. Blue Sky
TTITLE1=Go Your Own Way
TTITLE2=Superstition
TTITLE3=Vienna
TTITLE4=Renegade
TTITLE5=Take It Easy
TTITLE6=I Feel the Earth Move
TTITLE7=Rich Girl
TTITLE8=Ain't No Sunshine
TTITLE9=Bennie and the Jets
TTITLE10=Hold the Line
TTITLE11=Take Me Home, Country Road
EXTD=
EXTT0=
EXTT1=
EXTT2=
EXTT3=
EXTT4=
EXTT5=
EXTT6=
EXTT7=
EXTT8=
EXTT9=
EXTT10=
EXTT11=
PLAYORDER=
